<?xml version="1.0" encoding="UTF-8" standalone="no"?>
<!-- Created with Inkscape (http://www.inkscape.org/) -->

<svg
   width="191.08994mm"
   height="186.67361mm"
   viewBox="0 0 191.08994 186.67361"
   version="1.1"
   id="svg1"
   xml:space="preserve"
   xmlns="http://www.w3.org/2000/svg"
   xmlns:svg="http://www.w3.org/2000/svg"><defs
     id="defs1" /><g
     id="layer2"
     style="display:inline"
     transform="matrix(-1,0,0,1,204.24142,-64.952368)"><path
       style="display:inline;fill:#a2404b;fill-opacity:1;stroke-width:0.264583"
       d="m 17.237136,234.47572 c 0,0 -4.791214,0.002 -3.996736,-10.35936 0.794478,-10.36178 4.75962,-12.04353 4.75962,-12.04353 l 104.42069,13.14584 67.60359,-7.72251 c 0,0 7.88117,1.28001 7.97477,2.27784 0.0936,0.99784 -8.48117,1.14032 -8.48117,1.14032 0,0 -1.08249,2.79258 -2.27877,9.43159 -1.19629,6.63901 -0.3798,8.98848 -0.3798,8.98848 0,0 8.81399,1.12958 6.51982,3.13332 -2.29417,2.00373 -90.46046,9.15826 -90.46046,9.15826 z"
       id="path1" /><path
       style="fill:#d9c1b4;fill-opacity:1;stroke-width:0.264583"
       d="m 189.5179,220.91432 -85.15295,7.86314 c 0,0 -2.29556,4.1918 -3.09563,10.53972 -1.02124,8.10271 0.59614,9.85931 0.59614,9.85931 l 84.99387,-9.8421 c 0,0 -0.41223,-3.8185 0.3798,-8.98848 0.79203,-5.16999 2.27877,-9.43159 2.27877,-9.43159 z"
       id="path2" /></g><g
     id="g4"
     transform="matrix(-1,0,0,1,204.24142,-64.952368)"><path
       style="display:inline;fill:#cd5e52;fill-opacity:1;stroke-width:0.264583"
       d="m 18.00002,212.07283 c 0,0 -4.530389,-1.02723 -3.577663,-14.11046 0.952726,-13.08322 6.595297,-11.41054 6.595297,-11.41054 l 118.504776,9.98088 54.2791,-6.74137 c 0,0 8.3722,0.78688 8.33153,2.09803 -0.0407,1.31116 -6.55652,1.90123 -6.55652,1.90123 0,0 -2.60431,4.80675 -3.80059,11.44576 -1.19629,6.63901 2.19386,7.73522 2.19386,7.73522 0,0 7.845,0.64956 5.55083,2.6533 -2.29417,2.00373 -77.09993,9.59379 -77.09993,9.59379 z"
       id="path3" /><path
       style="fill:#d9c1b4;fill-opacity:1;stroke-width:0.264583"
       d="m 195.72749,193.88364 -68.01013,5.35662 c 0,0 -3.50406,2.84902 -4.48317,11.21111 -0.94975,8.1114 0.95421,11.11256 0.95421,11.11256 l 70.04426,-8.45455 c 0,0 -0.45699,-3.68423 -0.0678,-8.94372 0.3892,-5.2595 1.56262,-10.28202 1.56262,-10.28202 z"
       id="path4" /></g><g
     id="g6"
     transform="matrix(-1,0,0,1,204.24142,-64.952368)"><path
       style="display:inline;fill:#e6ad16;fill-opacity:0.997101;stroke-width:0.264583"
       d="m 17.019821,186.48247 c 0,0 -4.217074,-0.72588 -3.756701,-13.13772 0.460374,-12.41184 7.669521,-10.51535 7.669521,-10.51535 l 135.916159,7.11628 39.55328,-5.9357 c 0,0 7.87985,0.0707 7.83918,1.38188 -0.0407,1.31116 -8.51377,2.4831 -8.51377,2.4831 0,0 -2.34792,2.61354 -3.5442,9.25255 -1.19629,6.63901 3.8052,8.71993 3.8052,8.71993 0,0 9.32206,-0.0666 7.02789,1.93715 -2.29417,2.00373 -63.49395,8.74812 -63.49395,8.74812 z"
       id="path5" /><path
       style="fill:#d9c1b4;fill-opacity:1;stroke-width:0.264583"
       d="m 195.72749,167.87496 -52.13857,6.00234 c 0,0 -2.4358,1.85053 -2.80574,10.26162 -0.3484,7.9215 1.74266,10.1277 1.74266,10.1277 l 53.46265,-8.41918 c 0,0 -2.16607,-3.58928 -1.77688,-8.84877 0.193,-4.13409 1.51588,-9.12371 1.51588,-9.12371 z"
       id="path6" /></g><g
     id="g8"
     style="display:inline"
     transform="matrix(-1,0,0,1,204.24142,-64.952368)"><path
       style="display:inline;fill:#3c6c3e;fill-opacity:1;stroke-width:0.264583"
       d="m 19.646293,162.7255 c 0,0 -4.440871,-0.8653 -3.980498,-13.27714 0.460374,-12.41184 6.550539,-12.08193 6.550539,-12.08193 l 139.765466,5.46019 34.00669,-4.32437 c 0,0 4.83265,-0.0636 4.79198,1.2476 -0.0407,1.31116 -4.79198,2.12503 -4.79198,2.12503 0,0 -1.77282,5.65718 -2.11867,10.1925 -0.34586,4.53532 1.29868,8.31709 1.29868,8.31709 0,0 7.39741,0.33728 5.10324,2.34103 -2.29417,2.00373 -43.42294,7.22018 -43.42294,7.22018 z"
       id="path7" /><path
       style="fill:#d9c1b4;fill-opacity:1;stroke-width:0.264583"
       d="m 195.98849,141.87488 -38.38806,3.71453 c 0,0 -2.21425,1.85053 -2.58419,10.26162 -0.3484,7.9215 1.20461,11.04554 1.20461,11.04554 l 38.94765,-6.5121 c 0,0 0.0447,-5.24479 0.28288,-9.63714 0.2382,-4.39235 0.53711,-8.87245 0.53711,-8.87245 z"
       id="path8" /></g><g
     id="g10"
     style="display:inline"
     transform="matrix(-1,0,0,1.127665,204.24142,-82.471133)"><path
       style="display:inline;fill:#256967;fill-opacity:1;stroke-width:0.264583"
       d="m 22.221929,137.42797 c 0,0 -3.075469,-4.31336 -2.97317,-10.81697 0.1023,-6.50361 6.167926,-10.34052 6.167926,-10.34052 l 145.608715,5.15108 19.52999,-3.26747 c 0,0 9.19375,0.40131 9.15308,1.71252 -0.0407,1.31116 -4.92909,2.30996 -4.92909,2.30996 0,0 -1.72523,3.41332 -2.07108,7.94864 -0.34586,4.53532 1.65675,4.73634 1.65675,4.73634 0,0 7.70211,0.50029 5.40794,2.50404 -2.29417,2.00373 -29.91137,6.04926 -29.91137,6.04926 z"
       id="path9" /><path
       style="fill:#d9c1b4;fill-opacity:1;stroke-width:0.264583"
       d="m 194.77938,122.17657 -25.04754,2.24054 c 0,0 -1.72758,2.52746 -1.97198,8.15777 -0.2444,5.63031 1.60519,7.48411 1.60519,7.48411 l 25.63417,-5.14718 c 0,0 -1.51714,-1.70402 -1.27896,-6.09637 0.2382,-4.39235 1.05912,-6.63887 1.05912,-6.63887 z"
       id="path10" /></g><g
     id="g12"
     style="display:inline"
     transform="matrix(-1,0,0,1,204.77996,-68.150356)"><path
       style="display:inline;fill:#446e82;fill-opacity:1;stroke-width:0.283077"
       d="m 26.875389,119.34283 c 0,0 -2.089122,-4.06041 -1.986823,-11.50497 0.1023,-7.44456 5.932043,-13.805732 5.932043,-13.805732 l 148.536521,3.47985 8.62543,-3.187428 c 0,0 5.88593,-2.953525 5.84526,-1.452608 -0.0407,1.500855 -4.61109,4.798717 -4.61109,4.798717 0,0 0.80523,3.926331 0.45938,9.117821 -0.34586,5.1915 -0.55872,9.47922 -0.55872,9.47922 0,0 6.5469,0.80816 5.28134,2.23233 -1.26556,1.42416 -13.01185,6.22269 -13.01185,6.22269 z"
       id="path11" /><path
       style="fill:#d9c1b4;fill-opacity:1;stroke-width:0.289187"
       d="m 191.12405,96.165483 -5.23498,3.732906 c 0,0 -3.03697,5.038951 -3.28137,11.765081 -0.2444,6.72613 0.47043,8.69208 0.47043,8.69208 l 6.82836,-3.04337 c 0,0 -0.38977,-4.86009 -0.23038,-8.4898 0.1594,-3.6297 1.44794,-12.656897 1.44794,-12.656897 z"
       id="path12" /></g><g
     id="g14"
     style="display:inline"
     transform="matrix(-1,0,0,1,204.24142,-64.952368)"><path
       style="display:inline;fill:#895b8e;fill-opacity:1;stroke-width:0.264583"
       d="m 30.689343,92.598397 c 0,0 -1.261103,-4.272566 -1.158804,-10.776176 0.1023,-6.50361 1.893494,-11.591981 1.893494,-11.591981 0,0 2.933911,-3.518582 11.924176,-5.277873 l 146.953771,2.089486 c 0,0 1.95211,0.149018 2.43362,1.013884 0.48151,0.864867 -1.48413,2.141074 -1.48413,2.141074 0,0.05256 -1.03915,16.485176 -0.12158,18.16365 0,0 1.28525,0.171866 1.3017,0.760736 0.0472,1.691912 -9.37615,5.419796 -9.37615,5.419796 z"
       id="path13" /><path
       style="fill:#d9c1b4;fill-opacity:1;stroke-width:0.264583"
       d="m 191.25147,70.196811 -2.30765,0.535883 c 0,0 -0.48569,5.046047 -0.73009,10.676357 -0.2444,5.63031 0.11236,8.529231 0.11236,8.529231 l 2.8038,-1.577821 c -0.20781,-7.655875 0.26,-3.420303 0.1216,-18.16365 z"
       id="path14" /></g><text
     xml:space="preserve"
     style="font-size:19.7556px;font-family:'UD Digi Kyokasho NK-B';-inkscape-font-specification:'UD Digi Kyokasho NK-B';text-align:start;letter-spacing:0px;word-spacing:5.29167px;writing-mode:vertical-lr;direction:ltr;text-orientation:upright;text-anchor:start;fill:#2b4259;fill-opacity:1;stroke-width:0.264583"
     x="27.730526"
     y="7.5454273"
     id="text31"><tspan
       id="tspan31"
       style="stroke-width:0.264583"
       x="27.730526"
       y="7.5454273">S</tspan></text><text
     xml:space="preserve"
     style="font-size:19.7556px;font-family:'UD Digi Kyokasho NK-B';-inkscape-font-specification:'UD Digi Kyokasho NK-B';text-align:start;letter-spacing:0px;word-spacing:5.29167px;writing-mode:vertical-lr;direction:ltr;text-orientation:upright;text-anchor:start;fill:#2b4259;fill-opacity:1;stroke-width:0.264583"
     x="40.019863"
     y="33.209839"
     id="text32"><tspan
       id="tspan32"
       style="stroke-width:0.264583"
       x="40.019863"
       y="33.209839">H</tspan></text><text
     xml:space="preserve"
     style="font-size:19.7556px;font-family:'UD Digi Kyokasho NK-B';-inkscape-font-specification:'UD Digi Kyokasho NK-B';text-align:start;letter-spacing:0px;word-spacing:5.29167px;writing-mode:vertical-lr;direction:ltr;text-orientation:upright;text-anchor:start;fill:#2b4259;fill-opacity:1;stroke-width:0.264583"
     x="52.27103"
     y="56.307938"
     id="text33"><tspan
       id="tspan33"
       style="stroke-width:0.264583"
       x="52.27103"
       y="56.307938">E</tspan></text><text
     xml:space="preserve"
     style="font-size:19.7556px;font-family:'UD Digi Kyokasho NK-B';-inkscape-font-specification:'UD Digi Kyokasho NK-B';text-align:start;letter-spacing:0px;word-spacing:5.29167px;writing-mode:vertical-lr;direction:ltr;text-orientation:upright;text-anchor:start;fill:#2b4259;fill-opacity:1;stroke-width:0.264583"
     x="66.304207"
     y="81.32563"
     id="text34"><tspan
       id="tspan34"
       style="stroke-width:0.264583"
       x="66.304207"
       y="81.32563">L</tspan></text><text
     xml:space="preserve"
     style="font-size:19.7556px;font-family:'UD Digi Kyokasho NK-B';-inkscape-font-specification:'UD Digi Kyokasho NK-B';text-align:start;letter-spacing:0px;word-spacing:5.29167px;writing-mode:vertical-lr;direction:ltr;text-orientation:upright;text-anchor:start;fill:#2b4259;fill-opacity:1;stroke-width:0.264583"
     x="78.496178"
     y="107.07485"
     id="text35"><tspan
       id="tspan35"
       style="stroke-width:0.264583"
       x="78.496178"
       y="107.07485">V</tspan></text><text
     xml:space="preserve"
     style="font-size:19.7556px;font-family:'UD Digi Kyokasho NK-B';-inkscape-font-specification:'UD Digi Kyokasho NK-B';text-align:start;letter-spacing:0px;word-spacing:5.29167px;writing-mode:vertical-lr;direction:ltr;text-orientation:upright;text-anchor:start;fill:#2b4259;fill-opacity:1;stroke-width:0.264583"
     x="95.479622"
     y="137.2475"
     id="text36"><tspan
       id="tspan36"
       style="stroke-width:0.264583"
       x="95.479622"
       y="137.2475">E</tspan></text><text
     xml:space="preserve"
     style="font-size:19.7556px;font-family:'UD Digi Kyokasho NK-B';-inkscape-font-specification:'UD Digi Kyokasho NK-B';text-align:start;letter-spacing:0px;word-spacing:5.29167px;writing-mode:vertical-lr;direction:ltr;text-orientation:upright;text-anchor:start;fill:#2b4259;fill-opacity:1;stroke-width:0.264583"
     x="116.06582"
     y="164.23466"
     id="text37"><tspan
       id="tspan37"
       style="stroke-width:0.264583"
       x="116.06582"
       y="164.23466">D</tspan></text></svg>
