<?xml version="1.0" encoding="UTF-8" standalone="no"?>
<!-- Created with Inkscape (http://www.inkscape.org/) -->

<svg
   width="107.77289mm"
   height="163.92178mm"
   viewBox="0 0 107.77289 163.92177"
   version="1.1"
   id="svg1"
   xml:space="preserve"
   sodipodi:docname="BookTemplate.svg"
   inkscape:export-filename="BookTemplate.png"
   inkscape:export-xdpi="96"
   inkscape:export-ydpi="96"
   xmlns:inkscape="http://www.inkscape.org/namespaces/inkscape"
   xmlns:sodipodi="http://sodipodi.sourceforge.net/DTD/sodipodi-0.dtd"
   xmlns="http://www.w3.org/2000/svg"
   xmlns:svg="http://www.w3.org/2000/svg"><sodipodi:namedview
     id="namedview1"
     pagecolor="#ffffff"
     bordercolor="#000000"
     borderopacity="0.25"
     inkscape:showpageshadow="2"
     inkscape:pageopacity="0.0"
     inkscape:pagecheckerboard="0"
     inkscape:deskcolor="#d1d1d1"
     inkscape:document-units="mm" /><defs
     id="defs1"><inkscape:path-effect
       effect="fillet_chamfer"
       id="path-effect5"
       is_visible="true"
       lpeversion="1"
       nodesatellites_param="F,0,0,1,0,6.3239495,0,1 @ F,0,0,1,0,7.8374735,0,1 @ F,0,0,1,0,0.8739483,0,1 @ F,0,0,1,0,1.3608187,0,1 @ F,0,0,1,0,0,0,1 @ F,0,0,1,0,0,0,1 @ F,0,0,1,0,1.0468206,0,1 @ F,0,0,1,0,0,0,1"
       radius="0"
       unit="px"
       method="auto"
       mode="F"
       chamfer_steps="1"
       flexible="false"
       use_knot_distance="true"
       apply_no_radius="true"
       apply_with_radius="true"
       only_selected="false"
       hide_knots="false" /><inkscape:path-effect
       effect="fillet_chamfer"
       id="path-effect4"
       is_visible="true"
       lpeversion="1"
       nodesatellites_param="F,0,0,1,0,0,0,1 @ F,0,0,1,0,0,0,1 @ F,0,0,1,0,0,0,1 @ F,0,0,1,0,0,0,1 @ F,0,0,1,0,1.9412575,0,1"
       radius="0"
       unit="px"
       method="auto"
       mode="F"
       chamfer_steps="1"
       flexible="false"
       use_knot_distance="true"
       apply_no_radius="true"
       apply_with_radius="true"
       only_selected="false"
       hide_knots="false" /><inkscape:path-effect
       effect="fillet_chamfer"
       id="path-effect3"
       is_visible="true"
       lpeversion="1"
       nodesatellites_param="F,0,0,1,0,0,0,1 @ F,0,0,1,0,0,0,1 @ F,0,0,1,0,1.7957974,0,1 @ F,0,0,1,0,3.1996212,0,1"
       radius="0"
       unit="px"
       method="auto"
       mode="F"
       chamfer_steps="1"
       flexible="false"
       use_knot_distance="true"
       apply_no_radius="true"
       apply_with_radius="true"
       only_selected="false"
       hide_knots="false" /><linearGradient
       id="swatch19"
       inkscape:swatch="solid"><stop
         style="stop-color:#000000;stop-opacity:1;"
         offset="0"
         id="stop19" /></linearGradient></defs><path
     d="M 12.355915,152.57024 107.77327,151.52342 107.7729,4.3009723 A 4.3009826,4.3009826 0 0 0 103.47192,4.6403968e-7 H 12.341467 Z"
     style="fill:#bf5d39;fill-opacity:1;fill-rule:nonzero;stroke-width:0.234455;stroke-dasharray:none"
     id="path15"
     sodipodi:nodetypes="ccccc" /><path
     d="M 0.00186955,158.24602 H 12.348691 V -1.3151504e-6 C 9.115079,3.5163046e-6 0,0 4.1284606e-4,8.5118509 Z"
     style="fill:#9f4828;fill-opacity:1;fill-rule:nonzero;stroke-width:0.0858926;stroke-dasharray:none"
     id="path15-5"
     sodipodi:nodetypes="ccccc" /><path
     style="display:inline;fill:#d27553;fill-opacity:1;fill-rule:evenodd;stroke-width:0.33514"
     d="m -0.00195308,157.21633 c -0.04833759,3.7031 3.51090638,6.7103 7.83942178,6.71412 33.8862043,0.0299 89.7714893,-0.003 97.4061313,-0.008 0.48266,-3.1e-4 0.88608,-0.39165 0.90106,-0.87409 l 0.0252,-0.81196 a 1.3055545,1.3055545 45.591712 0 0 -1.3185,-1.34601 l -1.15934,0.012 0.009,-8.33207 h 3.02543 a 1.0468206,1.0468206 135 0 0 1.04682,-1.04682 v -0.66928 l -101.4493417,0.0619 c -3.4926202,0.002 -6.28051365,2.82315 -6.32590138,6.30026 z"
     id="path17"
     sodipodi:nodetypes="ccccccccc"
     inkscape:path-effect="#path-effect5"
     inkscape:original-d="m 0,150.91993 c 0.16913227,-0.42279 -0.17285268,12.76528 0,13.00187 34.492235,0.0472 106.11753,1e-5 106.11753,1e-5 l 0.0946,-3.04565 -2.52009,0.0262 0.009,-8.33207 h 4.07225 v -1.7161 z"
     sodipodi:insensitive="true" /><path
     style="display:inline;fill:#d9c1b4;fill-opacity:1;stroke-width:0.344699"
     d="m 105.38838,152.57024 -0.59951,9.25582 -99.296452,-0.11045 c -0.9917909,-0.001 -2.2899225,-0.64851 -2.7032149,-1.54834 -0.7608306,-1.6565 -0.8571499,-3.2484 -0.7099102,-4.54324 0.1985787,-1.74632 2.327997,-3.05379 4.095099,-3.05379 z"
     id="path18"
     sodipodi:nodetypes="cccsc"
     inkscape:path-effect="#path-effect3"
     inkscape:original-d="m 105.38838,152.57024 -0.59951,9.25582 -101.0922483,-0.11245 c -3.28873102,-4.54516 -0.721851,-9.14337 -0.721851,-9.14337 z" /><path
     style="display:inline;fill:#d3a992;fill-opacity:1;stroke-width:0.344699"
     d="m 105.38838,152.57024 -0.2117,3.2685 -81.870457,-0.0683 c -21.838408,0 -21.268829,2.4581 -21.284627,0.96427 -0.00942,-0.89121 0.118322,-1.69252 0.2831315,-2.34863 0.2604196,-1.03675 1.5391741,-1.81584 2.611301,-1.81584 z"
     id="path18-8"
     sodipodi:nodetypes="cccscc"
     inkscape:path-effect="#path-effect4"
     inkscape:original-d="m 105.38838,152.57024 -0.2117,3.2685 -81.870457,-0.0683 c -21.838408,0 -21.268829,2.4581 -21.284627,0.96427 -0.0255,-2.41131 0.953175,-4.16447 0.953175,-4.16447 z"
     sodipodi:insensitive="true" /><path
     style="fill:#2b4259;fill-opacity:1;stroke:#2b4259;stroke-width:0.232895;stroke-dasharray:none;stroke-opacity:1"
     d="m 0.11686222,15.003401 c 0,0 1.00112568,-2.355355 12.11506078,-2.513189 V 15.22194 C 2.1424236,15.659016 0.11706594,17.583366 0.11706594,17.583366 Z"
     id="path8"
     sodipodi:nodetypes="ccccc" /><path
     style="fill:#2b4259;fill-opacity:1;stroke:#2b4259;stroke-width:0.232895;stroke-dasharray:none;stroke-opacity:1"
     d="m 0.1099585,19.612861 c 0,0 1.0011257,-2.355355 12.1150605,-2.513189 V 19.8314 C 2.1355199,20.268476 0.1101622,22.192826 0.1101622,22.192826 Z"
     id="path8-4"
     sodipodi:nodetypes="ccccc" /><path
     style="fill:#2b4259;fill-opacity:1;stroke:#2b4259;stroke-width:0.232895;stroke-dasharray:none;stroke-opacity:1"
     d="m 0.11689149,137.28947 c 0,0 1.00112571,-2.35535 12.11506051,-2.51319 v 2.73173 c -10.0894991,0.43708 -12.11485681,2.36143 -12.11485681,2.36143 z"
     id="path8-6"
     sodipodi:nodetypes="ccccc" /><path
     style="fill:#2b4259;fill-opacity:1;stroke:#2b4259;stroke-width:0.232895;stroke-dasharray:none;stroke-opacity:1"
     d="m 0.10998779,141.89893 c 0,0 1.00112571,-2.35535 12.11506021,-2.51319 v 2.73173 C 2.1355492,142.55455 0.11019149,144.4789 0.11019149,144.4789 Z"
     id="path8-4-4"
     sodipodi:nodetypes="ccccc" /></svg>
