<?xml version="1.0" encoding="UTF-8" standalone="no"?>
<!-- Created with Inkscape (http://www.inkscape.org/) -->

<svg
   width="171.91522mm"
   height="124.33556mm"
   viewBox="0 0 171.91523 124.33556"
   version="1.1"
   id="svg1"
   inkscape:export-filename="bitmap.svg"
   inkscape:export-xdpi="96"
   inkscape:export-ydpi="96"
   sodipodi:docname="Shelved_Logo_2.svg"
   xmlns:inkscape="http://www.inkscape.org/namespaces/inkscape"
   xmlns:sodipodi="http://sodipodi.sourceforge.net/DTD/sodipodi-0.dtd"
   xmlns="http://www.w3.org/2000/svg"
   xmlns:svg="http://www.w3.org/2000/svg">
  <sodipodi:namedview
     id="namedview1"
     pagecolor="#ffffff"
     bordercolor="#000000"
     borderopacity="0.25"
     inkscape:showpageshadow="2"
     inkscape:pageopacity="0.0"
     inkscape:pagecheckerboard="0"
     inkscape:deskcolor="#d1d1d1"
     inkscape:document-units="mm" />
  <defs
     id="defs1">
    <inkscape:path-effect
       effect="fillet_chamfer"
       id="path-effect5"
       is_visible="true"
       lpeversion="1"
       nodesatellites_param="F,0,0,1,0,0,0,1 @ F,0,0,1,0,0,0,1 @ F,0,0,1,0,0,0,1 @ F,0,0,1,0,0,0,1 @ F,0,0,1,0,0,0,1 @ F,0,0,1,0,0,0,1 @ F,0,0,1,0,0,0,1 @ F,0,0,1,0,0,0,1"
       radius="0"
       unit="px"
       method="auto"
       mode="F"
       chamfer_steps="1"
       flexible="false"
       use_knot_distance="true"
       apply_no_radius="true"
       apply_with_radius="true"
       only_selected="false"
       hide_knots="false" />
  </defs>
  <g
     inkscape:label="Layer 1"
     inkscape:groupmode="layer"
     id="layer1"
     transform="translate(-27.398666,-77.474581)">
    <path
       style="fill:#bf5d39;fill-opacity:0;stroke:#bf5d39;stroke-width:10;stroke-dasharray:none;stroke-opacity:1"
       id="rect4"
       width="35.459045"
       height="113.37759"
       x="40.489525"
       y="81.243362"
       inkscape:path-effect="#path-effect5"
       sodipodi:type="rect"
       d="m 49.63572,81.243362 h 17.166655 c 5.066992,0 9.146195,4.079204 9.146195,9.146196 v 95.085192 c 0,5.067 -4.079203,9.1462 -9.146195,9.1462 H 49.63572 c -5.066992,0 -9.146195,-4.0792 -9.146195,-9.1462 V 90.389558 c 0,-5.066992 4.079203,-9.146196 9.146195,-9.146196 z"
       ry="9.1461954"
       inkscape:export-filename="Shelved_Logo_2.svg"
       inkscape:export-xdpi="96"
       inkscape:export-ydpi="96"
       transform="translate(2.6320601,1.5149296)" />
    <rect
       style="fill:#bf5d39;fill-opacity:0;stroke:#bf5d39;stroke-width:10;stroke-dasharray:none;stroke-opacity:1"
       id="rect4-5"
       width="35.459045"
       height="76.295708"
       x="51.195705"
       y="142.59473"
       ry="11.960409"
       transform="rotate(-15)" />
    <rect
       style="fill:#bf5d39;fill-opacity:0;stroke:#bf5d39;stroke-width:10;stroke-dasharray:none;stroke-opacity:1"
       id="rect4-52"
       width="35.459045"
       height="104.69003"
       x="148.13193"
       y="91.535828"
       sodipodi:type="rect"
       ry="9.8568573" />
    <path
       style="fill:#bf5d39;fill-opacity:1;stroke:#2b4259;stroke-width:0.219155;stroke-opacity:0"
       d="m 49.382804,102.84419 c 11.600744,4.8329 22.892698,-0.20144 22.892698,-0.20144 l 0.04344,-1.96403 c 0,0 -11.278035,4.08385 -22.849258,0.0504 z"
       id="path1"
       sodipodi:nodetypes="ccccc" />
    <path
       style="fill:#bf5d39;fill-opacity:1;stroke:#2b4259;stroke-width:0.219155;stroke-opacity:0"
       d="m 154.39317,111.34967 c 11.60074,4.8329 22.89269,-0.20144 22.89269,-0.20144 l 0.0434,-1.96403 c 0,0 -11.27803,4.08385 -22.84925,0.0504 z"
       id="path1-90"
       sodipodi:nodetypes="ccccc" />
    <path
       style="fill:#bf5d39;fill-opacity:1;stroke:#2b4259;stroke-width:0.219155;stroke-opacity:0"
       d="m 154.39317,181.46145 c 11.60075,4.8329 22.8927,-0.20144 22.8927,-0.20144 l 0.0434,-1.96403 c 0,0 -11.27803,4.08385 -22.84926,0.0504 z"
       id="path1-5-97"
       sodipodi:nodetypes="ccccc" />
    <path
       style="fill:#bf5d39;fill-opacity:1;stroke:#2b4259;stroke-width:0.219155;stroke-opacity:0"
       d="m 49.382826,182.90462 c 11.600744,4.8329 22.892697,-0.20144 22.892697,-0.20144 l 0.0434,-1.96403 c 0,0 -11.278034,4.08385 -22.849257,0.0504 z"
       id="path1-5-1"
       sodipodi:nodetypes="ccccc" />
    <path
       style="fill:#bf5d39;fill-opacity:1;stroke:#2b4259;stroke-width:0.219155;stroke-opacity:0"
       d="m 96.537963,139.15718 c 12.456307,1.66573 22.060507,-6.11964 22.060507,-6.11964 l -0.46641,-1.90834 c 0,0 -9.83676,6.86367 -22.057637,5.96251 z"
       id="path1-8"
       sodipodi:nodetypes="ccccc" />
    <path
       style="fill:#bf5d39;fill-opacity:1;stroke:#2b4259;stroke-width:0.219155;stroke-opacity:0"
       d="m 108.89078,184.64172 c 12.45632,1.66573 22.06052,-6.11965 22.06052,-6.11965 l -0.46641,-1.90834 c 0,0 -9.83676,6.86367 -22.05765,5.96251 z"
       id="path1-5-2-6"
       sodipodi:nodetypes="ccccc" />
  </g>
</svg>
