<?xml version="1.0" encoding="UTF-8" standalone="no"?>
<!-- Created with Inkscape (http://www.inkscape.org/) -->

<svg
   width="150.66275mm"
   height="123.46757mm"
   viewBox="0 0 150.66276 123.46756"
   version="1.1"
   id="svg1"
   inkscape:export-filename="Shelved_Logo_V2.svg"
   inkscape:export-xdpi="101.28306"
   inkscape:export-ydpi="101.28306"
   sodipodi:docname="Shelved_Logo_V2.svg"
   xmlns:inkscape="http://www.inkscape.org/namespaces/inkscape"
   xmlns:sodipodi="http://sodipodi.sourceforge.net/DTD/sodipodi-0.dtd"
   xmlns="http://www.w3.org/2000/svg"
   xmlns:svg="http://www.w3.org/2000/svg">
  <sodipodi:namedview
     id="namedview1"
     pagecolor="#ffffff"
     bordercolor="#000000"
     borderopacity="0.25"
     inkscape:showpageshadow="2"
     inkscape:pageopacity="0.0"
     inkscape:pagecheckerboard="0"
     inkscape:deskcolor="#d1d1d1"
     inkscape:document-units="mm"
     showgrid="false" />
  <defs
     id="defs1">
    <inkscape:path-effect
       effect="fillet_chamfer"
       id="path-effect5"
       is_visible="true"
       lpeversion="1"
       nodesatellites_param="F,0,0,1,0,0,0,1 @ F,0,0,1,0,0,0,1 @ F,0,0,1,0,0,0,1 @ F,0,0,1,0,0,0,1 @ F,0,0,1,0,0,0,1 @ F,0,0,1,0,0,0,1 @ F,0,0,1,0,0,0,1 @ F,0,0,1,0,0,0,1"
       radius="0"
       unit="px"
       method="auto"
       mode="F"
       chamfer_steps="1"
       flexible="false"
       use_knot_distance="true"
       apply_no_radius="true"
       apply_with_radius="true"
       only_selected="false"
       hide_knots="false" />
  </defs>
  <g
     inkscape:label="Left Book"
     inkscape:groupmode="layer"
     id="layer1"
     transform="translate(-38.121586,-77.758292)">
    <path
       style="fill:#bad9c8;fill-opacity:1;stroke:#435944;stroke-width:10;stroke-dasharray:none;stroke-opacity:1"
       id="rect4"
       width="35.459045"
       height="113.37759"
       x="40.489525"
       y="81.243362"
       inkscape:path-effect="#path-effect5"
       sodipodi:type="rect"
       d="m 49.63572,81.243362 h 17.166655 c 5.066992,0 9.146195,4.079204 9.146195,9.146196 v 95.085192 c 0,5.067 -4.079203,9.1462 -9.146195,9.1462 H 49.63572 c -5.066992,0 -9.146195,-4.0792 -9.146195,-9.1462 V 90.389558 c 0,-5.066992 4.079203,-9.146196 9.146195,-9.146196 z"
       ry="9.1461954"
       inkscape:export-filename="Shelved_Logo_2.svg"
       inkscape:export-xdpi="96"
       inkscape:export-ydpi="96"
       transform="translate(2.6320601,1.5149296)"
       inkscape:label="Left Book"
       sodipodi:insensitive="true" />
    <path
       style="color:#000000;display:inline;fill:#435944;-inkscape-stroke:none"
       d="m 49.696661,96.699771 c 0,0 1.79638,2.171778 11.44479,2.140758 9.6484,-0.031 11.07646,-1.970761 11.07646,-1.970761 0,0 0.75673,-0.763894 0.69923,-1.232821 -0.0455,-0.37132 -0.77313,-0.813527 -0.77313,-0.813527 0,0 -1.74624,1.561201 -11.00256,1.595491 -9.25632,0.0343 -11.08425,-1.595491 -11.08425,-1.595491 0,0 -0.55797,0.478187 -0.62785,0.813527 -0.0745,0.357627 0.26731,1.062824 0.26731,1.062824 z"
       id="path3-1-9"
       sodipodi:nodetypes="cscacscac"
       inkscape:label="Book Spine" />
    <path
       style="color:#000000;display:inline;fill:#435944;-inkscape-stroke:none"
       d="m 49.696661,183.55515 c 0,0 1.79638,2.17178 11.44479,2.14076 9.6484,-0.031 11.07646,-1.97076 11.07646,-1.97076 0,0 0.75673,-0.7639 0.69923,-1.23283 -0.0455,-0.37132 -0.77313,-0.81352 -0.77313,-0.81352 0,0 -1.74624,1.5612 -11.00256,1.59549 -9.25632,0.0343 -11.08425,-1.59549 -11.08425,-1.59549 0,0 -0.55797,0.47818 -0.62785,0.81352 -0.0745,0.35763 0.26731,1.06283 0.26731,1.06283 z"
       id="path3-1-3-4"
       sodipodi:nodetypes="cscacscac"
       inkscape:label="Book Spine" />
  </g>
  <g
     inkscape:groupmode="layer"
     id="layer3"
     inkscape:label="Center Book"
     transform="translate(-10.72292,-0.28371102)">
    <rect
       style="display:inline;fill:#bad9c8;fill-opacity:1;stroke:#435944;stroke-width:10;stroke-dasharray:none;stroke-opacity:1"
       id="rect4-5"
       width="35.459045"
       height="76.295708"
       x="51.195705"
       y="142.59473"
       ry="11.960409"
       transform="rotate(-15,-307.93827,65.319498)"
       inkscape:label="Center Book"
       sodipodi:insensitive="true" />
    <path
       style="color:#000000;display:inline;fill:#435944;-inkscape-stroke:none"
       d="m 67.958054,58.110952 c 0,0 2.29727,1.632841 11.60889,-0.894314 9.31161,-2.527134 10.18897,-4.770407 10.18897,-4.770407 0,0 0.53323,-0.933725 0.35632,-1.371792 -0.14005,-0.346891 -0.95734,-0.585706 -0.95734,-0.585706 0,0 -1.28267,1.959966 -10.21471,4.388799 -8.93205,2.428843 -11.11951,1.327688 -11.11951,1.327688 0,0 -0.41519,0.606307 -0.3959,0.948307 0.0206,0.364723 0.53328,0.957425 0.53328,0.957425 z"
       id="path3-1-9-9"
       sodipodi:nodetypes="cscacscac"
       inkscape:label="Book Spine" />
    <path
       style="color:#000000;display:inline;fill:#435944;-inkscape-stroke:none"
       d="m 81.423225,106.1222 c 0,0 2.29726,1.63284 11.608879,-0.89432 9.311626,-2.52713 10.188976,-4.77041 10.188976,-4.77041 0,0 0.53324,-0.933718 0.35633,-1.371789 -0.14006,-0.34689 -0.95734,-0.5857 -0.95734,-0.5857 0,0 -1.28267,1.959959 -10.214726,4.388799 -8.932039,2.42884 -11.119499,1.32769 -11.119499,1.32769 0,0 -0.4152,0.6063 -0.39591,0.9483 0.0206,0.36472 0.53329,0.95743 0.53329,0.95743 z"
       id="path3-1-3-4-2"
       sodipodi:nodetypes="cscacscac"
       inkscape:label="Book Spine" />
  </g>
  <g
     inkscape:groupmode="layer"
     id="layer2"
     inkscape:label="Right Book"
     sodipodi:insensitive="true"
     transform="translate(-10.72292,-0.28371102)">
    <rect
       style="display:inline;fill:#bad9c8;fill-opacity:1;stroke:#435944;stroke-width:10;stroke-dasharray:none;stroke-opacity:1"
       id="rect4-52"
       width="35.459045"
       height="104.69003"
       x="148.32535"
       y="91.535828"
       sodipodi:type="rect"
       ry="9.8568573"
       inkscape:label="Right Book"
       transform="translate(-27.398665,-77.47458)" />
    <path
       style="color:#000000;display:inline;fill:#435944;-inkscape-stroke:none"
       d="m 154.58204,105.36626 c 0,0 1.79638,2.17178 11.44479,2.14076 9.6484,-0.031 11.07646,-1.97076 11.07646,-1.97076 0,0 0.75673,-0.7639 0.69923,-1.23283 -0.0455,-0.37132 -0.77313,-0.81352 -0.77313,-0.81352 0,0 -1.74624,1.5612 -11.00256,1.59549 -9.25632,0.0343 -11.08425,-1.59549 -11.08425,-1.59549 0,0 -0.55797,0.47818 -0.62785,0.81352 -0.0745,0.35763 0.26731,1.06283 0.26731,1.06283 z"
       id="path3-1"
       sodipodi:nodetypes="cscacscac"
       inkscape:label="Book Spine"
       transform="translate(-27.398665,-77.47458)" />
    <path
       style="color:#000000;display:inline;fill:#435944;-inkscape-stroke:none"
       d="m 154.58204,183.22574 c 0,0 1.79638,2.17178 11.44479,2.14076 9.6484,-0.031 11.07646,-1.97076 11.07646,-1.97076 0,0 0.75673,-0.7639 0.69923,-1.23283 -0.0455,-0.37132 -0.77313,-0.81352 -0.77313,-0.81352 0,0 -1.74624,1.5612 -11.00256,1.59549 -9.25632,0.0343 -11.08425,-1.59549 -11.08425,-1.59549 0,0 -0.55797,0.47818 -0.62785,0.81352 -0.0745,0.35763 0.26731,1.06283 0.26731,1.06283 z"
       id="path3-1-3"
       sodipodi:nodetypes="cscacscac"
       inkscape:label="Book Spine"
       transform="translate(-27.398665,-77.47458)" />
  </g>
</svg>
